<?xml version="1.0" encoding="utf-8"?>
<!-- Generator: Adobe Illustrator 22.1.0, SVG Export Plug-In . SVG Version: 6.00 Build 0)  -->
<svg version="1.1" id="Layer_1" xmlns="http://www.w3.org/2000/svg" xmlns:xlink="http://www.w3.org/1999/xlink" x="0px" y="0px"
	 viewBox="0 0 168.8 54.6" style="enable-background:new 0 0 168.8 54.6;" xml:space="preserve">
<style type="text/css">
	.st0{fill:url(#SVGID_1_);}
	.st1{fill:url(#SVGID_2_);}
	.st2{fill:#008B93;}
</style>
<g>
	
		<linearGradient id="SVGID_1_" gradientUnits="userSpaceOnUse" x1="42.2121" y1="94.1315" x2="19.776" y2="56.0258" gradientTransform="matrix(1 0 0 1 0 -46.1102)">
		<stop  offset="8.032128e-03" style="stop-color:#67C9D0"/>
		<stop  offset="0.4499" style="stop-color:#21ACB4"/>
		<stop  offset="1" style="stop-color:#008B93"/>
	</linearGradient>
	<path class="st0" d="M1.9,32.1L12,49.6c1.7,2.9,4.7,4.6,8,4.6h20.2c3.3,0,6.4-1.8,8-4.6l10.1-17.5c1.7-2.9,1.7-6.4,0-9.3L48.2,5.3
		c-1.7-2.9-4.7-4.6-8-4.6H20c-3.3,0-6.4,1.8-8,4.6L1.9,22.8C0.3,25.7,0.3,29.2,1.9,32.1z"/>
	
		<linearGradient id="SVGID_2_" gradientUnits="userSpaceOnUse" x1="41.9855" y1="90.7629" x2="14.9197" y2="51.5887" gradientTransform="matrix(1 0 0 1 0 -46.1102)">
		<stop  offset="0" style="stop-color:#008B93"/>
		<stop  offset="0.5501" style="stop-color:#21ACB4"/>
		<stop  offset="0.9923" style="stop-color:#67C9D0"/>
	</linearGradient>
	<path class="st1" d="M1.9,32.1L12,49.6c1.7,2.9,4.7,4.6,8,4.6h20.2c3.3,0,6.4-1.8,8-4.6l10.1-17.5c1.7-2.9,1.7-6.4,0-9.3L48.2,5.3
		c-1.7-2.9-4.7-4.6-8-4.6H20c-3.3,0-6.4,1.8-8,4.6L1.9,22.8C0.3,25.7,0.3,29.2,1.9,32.1z M8.8,20.5c2,0,3.6,1.6,3.6,3.6
		s-1.6,3.6-3.6,3.6s-3.6-1.6-3.6-3.6S6.8,20.5,8.8,20.5z M51.5,34.3c-2,0-3.6-1.6-3.6-3.6s1.6-3.6,3.6-3.6s3.6,1.6,3.6,3.6
		C55,32.7,53.4,34.3,51.5,34.3z M3,23.7c-0.3,1.3,0.2,3.5,1.6,4.9c3.3,3.3,8.6,1.1,10-1.3L27.1,5.6c1.1-1.9,3.1-3.1,5.3-3.5h7.8
		C43,2.1,45.6,3.6,47,6l10.1,17.5c1.4,2.4,1.4,5.5,0,7.9l0,0c0.1-0.2,0.1-0.3,0.2-0.4c0.3-1.3-0.2-3.5-1.6-4.9
		c-3.3-3.3-8.6-1.1-10,1.3L33.1,49.1c-1.3,2.2-3.6,3.4-6.1,3.7h-7c-2.8,0-5.4-1.5-6.8-3.9L3.1,31.4C1.7,29,1.7,26.1,3,23.7z"/>
</g>
<path class="st2" d="M71.2,33.1v-1.9h5.7V34c0,0.6,0.1,1,0.3,1.3s0.6,0.4,1.1,0.4c0.8,0,1.1-0.6,1.1-1.9c0-0.9-0.2-1.6-0.5-2.2
	c-0.4-0.5-0.9-1.1-1.7-1.7l-3-2.4c-1-0.8-1.8-1.6-2.3-2.5s-0.7-2.1-0.7-3.6c0-1.2,0.3-2.3,1-3.1c0.6-0.9,1.5-1.5,2.6-1.9
	s2.3-0.7,3.6-0.7c4.6,0,7,2.3,7,6.9v0.5h-5.9v-0.9c0-0.6-0.1-1.1-0.3-1.5s-0.5-0.6-0.9-0.6s-0.7,0.1-0.9,0.3
	c-0.2,0.2-0.3,0.5-0.3,0.9c0,0.9,0.3,1.5,1,2l3.5,2.6c1.3,0.9,2.2,2,2.9,3.1s1,2.5,1,4.2c0,2.2-0.6,3.9-1.9,5.1
	c-1.3,1.2-3,1.8-5.3,1.8C73.6,40.3,71.2,37.9,71.2,33.1z"/>
<path class="st2" d="M87.2,14.5v-4h5.7v4H87.2z M87.2,40V16.1h5.7V40H87.2z"/>
<path class="st2" d="M97.6,43.1c-1-0.3-1.9-0.8-2.9-1.6l2-3.3c1.4,0.8,2.8,1.2,4.1,1.2c0.9,0,1.6-0.3,2-0.8c0.5-0.6,0.7-1.3,0.7-2.3
	V35c-0.5,1.6-1.7,2.5-3.6,2.5c-1.6,0-2.8-0.6-3.6-1.7c-0.8-1.1-1.2-2.6-1.2-4.4v-9c0-2.1,0.4-3.7,1.1-4.9c0.7-1.1,1.9-1.7,3.7-1.7
	c1,0,1.8,0.3,2.4,0.8c0.6,0.5,1,1.2,1.2,2.2v-2.7h5.8V36c0,2.7-0.6,4.6-1.9,5.8c-1.2,1.2-3.2,1.8-5.9,1.8
	C99.9,43.5,98.6,43.4,97.6,43.1z M103.6,30.7v-8.5c0-0.5-0.1-0.9-0.4-1.4c-0.3-0.4-0.6-0.7-1-0.7c-0.5,0-0.8,0.2-1,0.5
	c-0.2,0.4-0.3,0.9-0.3,1.5v8.5c0,0.7,0.1,1.3,0.3,1.7c0.2,0.4,0.5,0.7,1,0.7C103.1,33.2,103.6,32.4,103.6,30.7z"/>
<path class="st2" d="M111.6,16.1h5.7v3c0.2-1,0.7-1.8,1.2-2.4c0.6-0.6,1.4-0.9,2.4-0.9c1.6,0,2.8,0.5,3.6,1.5s1.2,2.4,1.2,4.2V40
	h-5.6V22.1c0-0.5-0.1-1-0.3-1.3c-0.2-0.4-0.5-0.6-1-0.6c-0.6,0-1,0.3-1.2,0.8s-0.3,1.2-0.3,2.1V40h-5.7V16.1z"/>
<path class="st2" d="M128,16.1h5.8v1.3c0.8-1,2-1.5,3.4-1.5c1.9,0,3.1,0.6,3.9,1.9c0.7,1.2,1.1,3,1.1,5.2v8.9c0,1.9-0.1,3.4-0.3,4.6
	s-0.7,2.1-1.4,2.9c-0.7,0.7-1.9,1.1-3.4,1.1c-1.4,0-2.5-0.4-3.3-1.2V45H128V16.1z M136.2,35.1c0.2-0.5,0.2-1.2,0.2-2.1V22.9
	c0-0.8-0.1-1.5-0.2-1.9c-0.2-0.4-0.5-0.7-1-0.7c-0.9,0-1.3,0.8-1.3,2.5v10.5c0,0.8,0.1,1.4,0.3,1.9c0.2,0.4,0.5,0.7,1.1,0.7
	C135.7,35.8,136,35.6,136.2,35.1z"/>
<path class="st2" d="M145.8,39.3c-0.7-0.7-1.2-1.5-1.4-2.6s-0.3-2.5-0.3-4.2l0.1-10.8c0-1.7,0.4-3.1,1.3-4.2
	c0.9-1.1,2.1-1.6,3.6-1.6s2.7,0.5,3.5,1.5v-5.6h5.7V40h-5.7v-2.5c-0.3,0.9-0.8,1.6-1.3,2.1c-0.6,0.5-1.3,0.7-2.2,0.7
	C147.6,40.3,146.6,39.9,145.8,39.3z M152.3,35c0.2-0.6,0.3-1.3,0.3-2.2v-1v-9c0-0.7-0.1-1.3-0.3-1.8s-0.5-0.7-1-0.7
	c-0.6,0-0.9,0.2-1.1,0.7c-0.2,0.4-0.3,1.1-0.3,1.8v10.1c0,2,0.5,3,1.4,3C151.8,35.8,152.1,35.5,152.3,35z"/>
<path class="st2" d="M161.1,21.5h-1v-4.3h1v-1.6c0-2.6,1.3-3.9,3.9-3.9c1.2,0,2.2,0.2,2.9,0.5v3.5c-0.2-0.1-0.4-0.1-0.5-0.1
	c-0.3,0-0.5,0.1-0.6,0.3s-0.1,0.5-0.1,1v0.3h1.2v4.4h-1.1V40h-5.7V21.5z"/>
</svg>
